<?xml version="1.0" encoding="utf-8"?>
<!-- Generator: Adobe Illustrator 18.1.1, SVG Export Plug-In . SVG Version: 6.00 Build 0)  -->
<!DOCTYPE svg PUBLIC "-//W3C//DTD SVG 1.1//EN" "http://www.w3.org/Graphics/SVG/1.1/DTD/svg11.dtd">
<svg version="1.1" id="Layer_1" xmlns="http://www.w3.org/2000/svg" xmlns:xlink="http://www.w3.org/1999/xlink" x="0px" y="0px"
	 viewBox="0 0 318.9 93.7" enable-background="new 0 0 318.9 93.7" xml:space="preserve">
<g>
	<g>
		<line fill="none" stroke="#D0D2D3" stroke-miterlimit="10" x1="31.8" y1="57.3" x2="287.9" y2="57.3"/>
		<circle fill="#FFFFFF" stroke="#FFFFFF" stroke-miterlimit="10" cx="229.3" cy="57.3" r="12.3"/>
		<circle fill="#FFFFFF" stroke="#FFFFFF" stroke-miterlimit="10" cx="275.6" cy="57.3" r="12.3"/>
		<circle fill="#FFFFFF" stroke="#FFFFFF" stroke-miterlimit="10" cx="183" cy="57.3" r="12.3"/>
		<circle fill="#FFFFFF" stroke="#FFFFFF" stroke-miterlimit="10" cx="136.7" cy="57.3" r="12.3"/>
		<circle fill="#FFFFFF" stroke="#FFFFFF" stroke-miterlimit="10" cx="44.1" cy="57.3" r="12.3"/>
		<circle fill="#FFFFFF" stroke="#FFFFFF" stroke-miterlimit="10" cx="90.4" cy="57.3" r="12.3"/>
		<circle fill="#FFFFFF" stroke="#50C6F2" stroke-miterlimit="10" cx="44.1" cy="57.3" r="12.3"/>
		<circle opacity="0.3" fill="#FFFFFF" stroke="#F7993B" stroke-miterlimit="10" cx="183" cy="57.3" r="12.3"/>
		<circle fill="#FFFFFF" stroke="#50C6F2" stroke-miterlimit="10" cx="90.4" cy="57.3" r="12.3"/>
		<circle fill="#FFFFFF" stroke="#50C6F2" stroke-miterlimit="10" cx="136.7" cy="57.3" r="12.3"/>
		<circle opacity="0.3" fill="#FFFFFF" stroke="#BC67A8" stroke-miterlimit="10" cx="275.6" cy="57.3" r="12.3"/>
		<circle opacity="0.3" fill="#FFFFFF" stroke="#BC67A8" stroke-miterlimit="10" cx="229.3" cy="57.3" r="12.3"/>
	</g>
	<polyline fill="none" stroke="#50C6F2" stroke-miterlimit="10" points="29.5,41.5 29.5,31.9 156.1,31.9 156.1,41.5 	"/>
	<polyline opacity="0.3" fill="none" stroke="#BC67A8" stroke-miterlimit="10" points="209.8,41.5 209.8,31.9 289.5,31.9 
		289.5,41.5 	"/>
	<polyline opacity="0.3" fill="none" stroke="#F7993B" stroke-miterlimit="10" points="164.5,41.5 164.5,31.9 201.5,31.9 
		201.5,41.5 	"/>
	<rect x="59.9" y="24.2" fill="none" width="61" height="10.7"/>
	<text transform="matrix(1 0 0 1 81.8207 29.2366)" fill="#50C6F2" font-family="'Helvetica-Light'" font-size="7">PAST</text>
	<rect x="152.5" y="24.2" fill="none" width="61" height="10.7"/>
	<text transform="matrix(1 0 0 1 167.6204 29.2366)" opacity="0.3" fill="#F7993B" font-family="'Helvetica-Light'" font-size="7">PRESENT</text>
	<rect x="219.1" y="24.2" fill="none" width="61" height="10.7"/>
	<text transform="matrix(1 0 0 1 236.2187 29.2366)" opacity="0.3" fill="#BC67A8" font-family="'Helvetica-Light'" font-size="7">FUTURE</text>
</g>
</svg>
