<?xml version="1.0" encoding="utf-8"?>
<!-- Generator: Adobe Illustrator 18.1.1, SVG Export Plug-In . SVG Version: 6.00 Build 0)  -->
<!DOCTYPE svg PUBLIC "-//W3C//DTD SVG 1.1//EN" "http://www.w3.org/Graphics/SVG/1.1/DTD/svg11.dtd">
<svg version="1.1" id="Layer_1" xmlns="http://www.w3.org/2000/svg" xmlns:xlink="http://www.w3.org/1999/xlink" x="0px" y="0px"
	 viewBox="0 0 318.9 93.7" enable-background="new 0 0 318.9 93.7" xml:space="preserve">
<g>
	<g>
		<line fill="none" stroke="#D0D2D3" stroke-miterlimit="10" x1="4" y1="59.5" x2="315.9" y2="59.5"/>
		<circle fill="#FFFFFF" stroke="#FFFFFF" stroke-miterlimit="10" cx="244.5" cy="59.5" r="14.9"/>
		<circle fill="#FFFFFF" stroke="#FFFFFF" stroke-miterlimit="10" cx="300.9" cy="59.5" r="14.9"/>
		<circle fill="#FFFFFF" stroke="#FFFFFF" stroke-miterlimit="10" cx="188.1" cy="59.5" r="14.9"/>
		<circle fill="#FFFFFF" stroke="#FFFFFF" stroke-miterlimit="10" cx="131.7" cy="59.5" r="14.9"/>
		<circle fill="#FFFFFF" stroke="#FFFFFF" stroke-miterlimit="10" cx="18.9" cy="59.5" r="14.9"/>
		<circle fill="#FFFFFF" stroke="#FFFFFF" stroke-miterlimit="10" cx="75.3" cy="59.5" r="14.9"/>
		<circle opacity="0.3" fill="#FFFFFF" stroke="#50C6F2" stroke-miterlimit="10" cx="18.9" cy="59.5" r="14.9"/>
		<circle fill="#FFFFFF" stroke="#F7993B" stroke-miterlimit="10" cx="188.1" cy="59.5" r="14.9"/>
		<circle opacity="0.3" fill="#FFFFFF" stroke="#50C6F2" stroke-miterlimit="10" cx="75.3" cy="59.5" r="14.9"/>
		<circle opacity="0.3" fill="#FFFFFF" stroke="#50C6F2" stroke-miterlimit="10" cx="131.7" cy="59.5" r="14.9"/>
		<circle opacity="0.3" fill="#FFFFFF" stroke="#BC67A8" stroke-miterlimit="10" cx="300.9" cy="59.5" r="14.9"/>
		<circle opacity="0.3" fill="#FFFFFF" stroke="#BC67A8" stroke-miterlimit="10" cx="244.5" cy="59.5" r="14.9"/>
	</g>
	<polyline opacity="0.3" fill="none" stroke="#50C6F2" stroke-miterlimit="10" points="1.1,40.3 1.1,28.7 155.4,28.7 155.4,40.3 	
		"/>
	<polyline opacity="0.3" fill="none" stroke="#BC67A8" stroke-miterlimit="10" points="220.8,40.3 220.8,28.7 317.8,28.7 
		317.8,40.3 	"/>
	<polyline fill="none" stroke="#F7993B" stroke-miterlimit="10" points="165.6,40.3 165.6,28.7 210.6,28.7 210.6,40.3 	"/>
	<rect x="38.2" y="19.3" fill="none" width="74.3" height="13"/>
	
		<text transform="matrix(1 0 0 1 64.887 25.3927)" opacity="0.3" fill="#50C6F2" font-family="'Helvetica-Light'" font-size="8.5266">PAST</text>
	<rect x="151" y="19.3" fill="none" width="74.3" height="13"/>
	<text transform="matrix(1 0 0 1 169.3977 25.3927)" fill="#F7993B" font-family="'Helvetica-Light'" font-size="8.5266">PRESENT</text>
	<rect x="232.1" y="19.3" fill="none" width="74.3" height="13"/>
	
		<text transform="matrix(1 0 0 1 252.9553 25.3927)" opacity="0.3" fill="#BC67A8" font-family="'Helvetica-Light'" font-size="8.5266">FUTURE</text>
</g>
</svg>
